/vscmnt/brussel_pixiu_data/_data_brussel/112/vsc11236/PredSimResults/SUBJ09_Dhondt2024_3seg/weighted-LRposFixed/worker_02.mot
version=1
nRows=4
nColumns=124
inDegrees=yes
endheader
                time	         pelvis_tilt	         pelvis_list	     pelvis_rotation	           pelvis_tx	           pelvis_ty	           pelvis_tz	       hip_flexion_r	     hip_adduction_r	      hip_rotation_r	        knee_angle_r	       ankle_angle_r	    subtalar_angle_r	         mtp_angle_r	       hip_flexion_l	     hip_adduction_l	      hip_rotation_l	        knee_angle_l	       ankle_angle_l	    subtalar_angle_l	         mtp_angle_l	    lumbar_extension	      lumbar_bending	     lumbar_rotation	          arm_flex_r	           arm_add_r	           arm_rot_r	        elbow_flex_r	          arm_flex_l	           arm_add_l	           arm_rot_l	        elbow_flex_l	glut_med1_r/activation	glut_med2_r/activation	glut_med3_r/activation	glut_min1_r/activation	glut_min2_r/activation	glut_min3_r/activation	semimem_r/activation	semiten_r/activation	bifemlh_r/activation	bifemsh_r/activation	    sar_r/activation	add_long_r/activation	add_brev_r/activation	add_mag1_r/activation	add_mag2_r/activation	add_mag3_r/activation	    tfl_r/activation	   pect_r/activation	   grac_r/activation	glut_max1_r/activation	glut_max2_r/activation	glut_max3_r/activation	iliacus_r/activation	  psoas_r/activation	quad_fem_r/activation	    gem_r/activation	   peri_r/activation	rect_fem_r/activation	vas_med_r/activation	vas_int_r/activation	vas_lat_r/activation	med_gas_r/activation	lat_gas_r/activation	 soleus_r/activation	tib_post_r/activation	flex_dig_r/activation	flex_hal_r/activation	tib_ant_r/activation	per_brev_r/activation	per_long_r/activation	per_tert_r/activation	ext_dig_r/activation	ext_hal_r/activation	glut_med1_l/activation	glut_med2_l/activation	glut_med3_l/activation	glut_min1_l/activation	glut_min2_l/activation	glut_min3_l/activation	semimem_l/activation	semiten_l/activation	bifemlh_l/activation	bifemsh_l/activation	    sar_l/activation	add_long_l/activation	add_brev_l/activation	add_mag1_l/activation	add_mag2_l/activation	add_mag3_l/activation	    tfl_l/activation	   pect_l/activation	   grac_l/activation	glut_max1_l/activation	glut_max2_l/activation	glut_max3_l/activation	iliacus_l/activation	  psoas_l/activation	quad_fem_l/activation	    gem_l/activation	   peri_l/activation	rect_fem_l/activation	vas_med_l/activation	vas_int_l/activation	vas_lat_l/activation	med_gas_l/activation	lat_gas_l/activation	 soleus_l/activation	tib_post_l/activation	flex_dig_l/activation	flex_hal_l/activation	tib_ant_l/activation	per_brev_l/activation	per_long_l/activation	per_tert_l/activation	ext_dig_l/activation	ext_hal_l/activation	 ercspn_r/activation	 ercspn_l/activation	 intobl_r/activation	 intobl_l/activation	 extobl_r/activation	 extobl_l/activation	
          0.00000000	         -2.92865894	         -2.08363191	          2.00325647	          0.00000000	          0.98871364	         -0.00222328	         23.31291690	          3.76147088	          1.40382177	         -4.14322363	          5.89786841	         -3.86639756	          0.18377252	        -14.21026520	          0.14425019	          7.28556052	         -7.31861002	          6.21037730	          5.38089070	         16.93127292	         -3.80279802	          1.61521922	         -1.58035001	         -9.30261877	        -13.45510314	         13.39168067	         30.81262986	          1.36335253	        -13.64879064	         18.95845429	         46.73304830	          0.02042724	          0.01410606	          0.01000079	          0.01410642	          0.01410621	          0.01000096	          0.04252969	          0.07091074	          0.21622370	          0.01000027	          0.01000044	          0.11756976	          0.15091034	          0.14805376	          0.14236603	          0.08937959	          0.01000041	          0.01779174	          0.03669409	          0.01188240	          0.03154363	          0.04279884	          0.01000010	          0.01000011	          0.01746184	          0.01000039	          0.01000014	          0.01074602	          0.07227097	          0.07359958	          0.06148303	          0.01000002	          0.01000006	          0.01000000	          0.01187699	          0.01187703	          0.01187701	          0.25347945	          0.17912999	          0.12662648	          0.12168701	          0.28321710	          0.04392741	          0.21806202	          0.11125249	          0.06765246	          0.30102553	          0.25407671	          0.17055005	          0.01000144	          0.01000036	          0.01000028	          0.04809431	          0.09008577	          0.01000010	          0.01000011	          0.01000018	          0.01000062	          0.01000034	          0.37715152	          0.01000056	          0.01000100	          0.01760517	          0.01188063	          0.01000121	          0.25982038	          0.45375919	          0.01093842	          0.01675537	          0.08090699	          0.25468929	          0.01000035	          0.01000035	          0.01000031	          0.33917097	          0.42809904	          0.35504867	          0.30106496	          0.38334294	          0.44782356	          0.01300611	          0.01401572	          0.16719065	          0.01718140	          0.01616370	          0.01466547	          0.01836866	          0.01000001	          0.03335369	          0.01000001	          0.06729675	          0.01000002	
          0.01126193	         -2.92279509	         -2.39351948	          2.11845360	          0.01578851	          0.98831810	         -0.00195814	         22.37744661	          4.32729302	          1.50652039	         -3.16109480	          4.96352308	         -4.03897665	          0.20055069	        -14.22479640	         -0.21250509	          7.01821468	         -8.87563377	          5.37463515	          5.80153188	         18.22050442	         -3.62129483	          2.08010296	         -1.65765527	         -9.73693695	        -13.45005978	         13.06014281	         30.27007240	          0.87861925	        -13.67213045	         18.93987477	         47.75609022	          0.01719901	          0.01187690	          0.01000011	          0.01187713	          0.01187699	          0.01000086	          0.03580851	          0.05970435	          0.18205267	          0.01000003	          0.01000013	          0.09899702	          0.21726249	          0.19793208	          0.19024531	          0.07525463	          0.01000023	          0.03340460	          0.03089540	          0.01000478	          0.02655869	          0.08843324	          0.01000009	          0.01000004	          0.02924072	          0.19923918	          0.06199169	          0.01989823	          0.09959880	          0.09992811	          0.08399797	          0.01000006	          0.01000008	          0.01178592	          0.01000001	          0.01000009	          0.01000009	          0.28281150	          0.17733239	          0.10791543	          0.16756829	          0.32335867	          0.03698534	          0.19690756	          0.09367064	          0.05696097	          0.25345289	          0.21392358	          0.14359708	          0.01000047	          0.01000010	          0.01000005	          0.04049371	          0.07584908	          0.02919404	          0.01000026	          0.01000022	          0.01000056	          0.01000020	          0.31754837	          0.01198196	          0.01000149	          0.01482329	          0.01000341	          0.01000034	          0.21875955	          0.38204909	          0.01000010	          0.01410755	          0.06812081	          0.21443944	          0.01000025	          0.01000024	          0.01000020	          0.30736194	          0.39201360	          0.33061299	          0.28630507	          0.36552419	          0.43481785	          0.01095068	          0.01180096	          0.16116744	          0.01446614	          0.01360927	          0.01234781	          0.01546576	          0.01676109	          0.02808262	          0.01000031	          0.05666146	          0.01000009	
          0.02252386	         -2.91228594	         -2.71185780	          2.21834368	          0.03185214	          0.98791927	         -0.00169909	         21.43946202	          4.85301653	          1.63124003	         -2.70675288	          3.66883719	         -4.17902761	          0.22054907	        -14.15531680	         -0.57694869	          6.72469911	        -10.58634715	          4.37037497	          6.23962827	         19.54409118	         -3.42089140	          2.55925865	         -1.72625650	        -10.12217925	        -13.45668971	         12.88666594	         29.60340028	          0.33737862	        -13.69020945	         18.91573057	         48.73264463	          0.01448096	          0.01000003	          0.03359588	          0.01000013	          0.01000004	          0.01000006	          0.03014952	          0.05026910	          0.15328185	          0.01989847	          0.01000602	          0.08336855	          0.26983194	          0.25709742	          0.16018195	          0.06336176	          0.01000006	          0.02812655	          0.16582965	          0.01000117	          0.02236153	          0.07445765	          0.01000025	          0.01410679	          0.20972820	          0.16775230	          0.05219481	          0.01675361	          0.08385869	          0.08413595	          0.07072334	          0.01410653	          0.01675396	          0.01000003	          0.01989937	          0.01675474	          0.01820503	          0.24240210	          0.19586768	          0.13035527	          0.14108655	          0.27225666	          0.08113456	          0.16578915	          0.07886734	          0.04795911	          0.21339833	          0.18011605	          0.12090364	          0.01186077	          0.01001598	          0.01187696	          0.03409426	          0.06386227	          0.06925443	          0.01187753	          0.01187808	          0.01187918	          0.01187802	          0.26736447	          0.01008877	          0.01000585	          0.01248127	          0.01187760	          0.01187764	          0.18418774	          0.32167172	          0.01187704	          0.01187837	          0.05735531	          0.18635314	          0.04510566	          0.04146592	          0.03468597	          0.25878781	          0.33657740	          0.29151032	          0.26561897	          0.30775862	          0.36610159	          0.01000000	          0.01000008	          0.15191421	          0.01217998	          0.01145852	          0.01039644	          0.01302162	          0.02280168	          0.02364456	          0.01820832	          0.04770693	          0.01187841	
          0.03378579	         -2.89853236	         -3.05209735	          2.30108930	          0.04808920	          0.98754501	         -0.00148446	         20.48600504	          5.29966615	          1.80418062	         -2.48675024	          2.08546642	         -4.30670593	          0.21857029	        -13.98183249	         -0.95908691	          6.39672637	        -12.46555093	          3.17842494	          6.67921468	         20.86613857	         -3.20899731	          3.07063970	         -1.78282232	        -10.44084401	        -13.48595313	         12.89556752	         28.80766671	         -0.24600490	        -13.69302040	         18.88571520	         49.65822173	          0.23594950	          0.21215015	          0.23804207	          0.20870403	          0.08829121	          0.22321652	          0.03435160	          0.04232503	          0.12905786	          0.01675392	          0.01187468	          0.07019336	          0.22718889	          0.21646691	          0.13486756	          0.05334841	          0.01187219	          0.02368174	          0.13962272	          0.01000009	          0.01882764	          0.06269072	          0.01187722	          0.01187747	          0.17658370	          0.14124157	          0.13883441	          0.01410596	          0.07060612	          0.07083956	          0.05954661	          0.01187720	          0.01410625	          0.01187693	          0.01675457	          0.01410693	          0.01532802	          0.39130121	          0.20774824	          0.10975466	          0.47415217	          0.38655053	          0.19380764	          0.22965651	          0.06640350	          0.04037986	          0.31412077	          0.15165136	          0.10179657	          0.01000069	          0.01000009	          0.01000007	          0.02870617	          0.05376981	          0.05831027	          0.01000056	          0.01000100	          0.01000205	          0.01000096	          0.22511234	          0.09249592	          0.01000046	          0.01050917	          0.01000092	          0.01000071	          0.15507956	          0.27083628	          0.01000010	          0.01000127	          0.04829113	          0.15690271	          0.03797739	          0.03491285	          0.02920437	          0.21789010	          0.28338618	          0.24544128	          0.22364180	          0.25912185	          0.30824454	          0.01000000	          0.02227592	          0.15955263	          0.01025513	          0.01000001	          0.01000004	          0.02028340	          0.03438185	          0.01990795	          0.01533076	          0.04016753	          0.01000122	
